<svg width="640" height="640" viewBox="0 0 640 640" fill="none" xmlns="http://www.w3.org/2000/svg">
  <rect x="10" y="10" width="620" height="620" rx="34" fill="#FFFDF3" stroke="#171717" stroke-width="20"/>
  <path d="M78 90H562V442H78V90Z" fill="#246BFE" stroke="#171717" stroke-width="18" stroke-linejoin="round"/>
  <path d="M116 130H524V398H116V130Z" fill="#2ED3A6" stroke="#171717" stroke-width="12" stroke-linejoin="round"/>
  <path d="M151 210H316" stroke="#171717" stroke-width="17" stroke-linecap="round"/>
  <path d="M151 263H274" stroke="#171717" stroke-width="17" stroke-linecap="round"/>
  <path d="M151 316H340" stroke="#171717" stroke-width="17" stroke-linecap="round"/>
  <path d="M386 205L430 166L474 205L456 262H404L386 205Z" fill="#FFD84D" stroke="#171717" stroke-width="13" stroke-linejoin="round"/>
  <path d="M410 229H450" stroke="#171717" stroke-width="12" stroke-linecap="round"/>
  <path d="M205 496H435" stroke="#171717" stroke-width="18" stroke-linecap="round"/>
  <path d="M282 436H358V496H282V436Z" fill="#FF4F81" stroke="#171717" stroke-width="14" stroke-linejoin="round"/>
  <circle cx="135" cy="520" r="32" fill="#FF8C42" stroke="#171717" stroke-width="12"/>
  <circle cx="505" cy="520" r="32" fill="#7C5CFF" stroke="#171717" stroke-width="12"/>
  <path d="M177 560H463" stroke="#171717" stroke-width="17" stroke-linecap="round"/>
  <path d="M102 55L122 26L142 55L174 66L142 79L122 108L102 79L70 66L102 55Z" fill="#FFD84D" stroke="#171717" stroke-width="10" stroke-linejoin="round"/>
  <path d="M512 61H574V123H512V61Z" fill="#FF4F81" stroke="#171717" stroke-width="11" stroke-linejoin="round" transform="rotate(8 543 92)"/>
  <path d="M84 470H154V540H84V470Z" fill="#FFFFFF" stroke="#171717" stroke-width="11" stroke-linejoin="round" transform="rotate(-9 119 505)"/>
  <path d="M100 492H137" stroke="#171717" stroke-width="8" stroke-linecap="round"/>
  <path d="M102 516H130" stroke="#171717" stroke-width="8" stroke-linecap="round"/>
  <path d="M502 480L558 536" stroke="#171717" stroke-width="13" stroke-linecap="round"/>
  <path d="M558 480L502 536" stroke="#171717" stroke-width="13" stroke-linecap="round"/>
  <text x="206" y="383" fill="#171717" font-family="Arial, sans-serif" font-size="86" font-weight="900">TTI</text>
</svg>
